<svg width="21" height="19" viewBox="0 0 21 19" fill="none" xmlns="http://www.w3.org/2000/svg">
<path d="M15 7.9375C15.5469 7.9375 15.9375 8.36719 15.9375 8.875C15.9375 9.42188 15.5469 9.8125 15 9.8125C14.4922 9.8125 14.0625 9.42188 14.0625 8.875C14.0625 8.36719 14.4922 7.9375 15 7.9375ZM10 7.9375C10.5469 7.9375 10.9375 8.36719 10.9375 8.875C10.9375 9.42188 10.5469 9.8125 10 9.8125C9.49219 9.8125 9.0625 9.42188 9.0625 8.875C9.0625 8.36719 9.49219 7.9375 10 7.9375ZM5 7.9375C5.54688 7.9375 5.9375 8.36719 5.9375 8.875C5.9375 9.42188 5.54688 9.8125 5 9.8125C4.49219 9.8125 4.0625 9.42188 4.0625 8.875C4.0625 8.36719 4.49219 7.9375 5 7.9375ZM10 0.75C15.5469 0.75 20 4.42188 20 8.875C20 10.75 19.2578 12.4688 17.9688 13.8359C18.5156 15.3594 19.7266 16.6875 19.7656 16.6875C20.0391 16.9609 20.0781 17.3516 19.9609 17.7031C19.8047 18.0547 19.4531 18.25 19.0625 18.25C16.6797 18.25 14.7656 17.2734 13.6328 16.4531C12.5 16.8047 11.2891 17 10 17C4.49219 17 0 13.3672 0 8.875C0 4.42188 4.49219 0.75 10 0.75ZM10 15.75C11.1328 15.75 12.2266 15.5938 13.2812 15.2812L13.8672 15.0859L14.375 15.4375C15.2734 16.0625 16.6406 16.8047 18.3594 17C17.8906 16.4141 17.2266 15.3984 16.7969 14.2656L16.5234 13.5234L17.0312 12.9766C18.1641 11.7656 18.75 10.3594 18.75 8.875C18.75 5.08594 14.8438 2 10 2C5.19531 2 1.25 5.08594 1.25 8.875C1.25 12.6641 5.19531 15.75 10 15.75Z" fill="white"/>
</svg>
